<svg width="50" height="37" viewBox="0 0 50 37" fill="none" xmlns="http://www.w3.org/2000/svg">
<path d="M45.5162 0H3.70873C1.68578 0 0 1.68182 0 3.7V33.3C0 35.3182 1.68578 37 3.70873 37H45.5162C47.5391 37 49.2249 35.3182 49.2249 33.3V3.7C49.2249 1.68182 47.5391 0 45.5162 0ZM3.70873 2.01818H45.5162C45.6511 2.01818 45.7185 2.01818 45.8533 2.08545L31.0859 16.7509L29.6698 18.1636L24.6125 23.2764L19.5551 18.2309L18.139 16.8182L3.37157 2.08545C3.50643 2.01818 3.57386 2.01818 3.70873 2.01818ZM2.02294 3.7C2.02294 3.63273 2.02294 3.63273 2.02294 3.56545L16.723 18.2309L2.02294 32.8291V3.7ZM45.5162 34.9818H3.70873C3.439 34.9818 3.16928 34.9145 2.96698 34.78L18.139 19.6436L23.9381 25.4291C24.1404 25.6309 24.4102 25.6982 24.6799 25.6982C24.6799 25.6982 24.6799 25.6982 24.7473 25.6982C25.017 25.6982 25.2868 25.5636 25.4216 25.3618L31.1533 19.6436L46.3254 34.78C46.0556 34.9145 45.7859 34.9818 45.5162 34.9818ZM47.202 32.8291L32.5019 18.2309L47.202 3.56545C47.202 3.63273 47.202 3.63273 47.202 3.7V32.8291Z" fill="black"/>
</svg>
