<svg width="31" height="31" viewBox="0 0 31 31" fill="none" xmlns="http://www.w3.org/2000/svg">
<path d="M15.2649 0.0566406C7.02282 0.0566406 0.326172 6.75929 0.326172 15.0732C0.326172 23.3226 7.02282 30.0252 15.2649 30.0252C23.5069 30.0252 30.2679 23.3226 30.2679 15.0732C30.2035 6.75929 23.5069 0.0566406 15.2649 0.0566406ZM21.7683 17.2644L15.2649 22.4848L8.69699 17.2644C6.82965 15.7821 6.57209 13.1397 8.05308 11.2707C9.53407 9.40169 12.1741 9.14389 14.0414 10.6262L15.2649 11.5929L16.4883 10.6262C18.3556 9.14389 20.9956 9.46613 22.4766 11.2707C23.8932 13.1397 23.5713 15.7821 21.7683 17.2644Z" fill="#FF7BAC"/>
</svg>
