<svg width="31" height="31" viewBox="0 0 31 31" fill="none" xmlns="http://www.w3.org/2000/svg">
<path d="M15.2982 0.797363C7.12054 0.797363 0.488281 7.43557 0.488281 15.6205C0.488281 23.8055 7.12054 30.4437 15.2982 30.4437C23.4758 30.4437 30.1081 23.8055 30.1081 15.6205C30.1081 7.43557 23.4758 0.797363 15.2982 0.797363ZM12.5938 21.8721C12.143 22.3232 11.5635 22.5166 10.9196 22.5166C10.2757 22.5166 9.69618 22.2588 9.18105 21.8076C6.92737 19.4875 6.54102 17.1673 6.54102 15.685C6.66981 12.3337 8.98787 10.078 9.24544 9.82017C10.2113 8.91789 11.6923 8.98233 12.5938 9.94906C13.4952 10.9158 13.4308 12.3981 12.465 13.3004C12.4006 13.3648 11.3059 14.4605 11.2416 15.8139C11.2416 16.6517 11.6279 17.554 12.5294 18.4563C13.5596 19.4875 13.5596 20.9698 12.5938 21.8721ZM23.669 16.0717C23.5402 19.423 21.2221 21.6787 20.9646 21.9365C19.9987 22.8388 18.5177 22.7743 17.6163 21.8076C16.7148 20.8409 16.7792 19.3586 17.745 18.4563C17.8094 18.3918 18.9041 17.2962 18.9685 15.9428C18.9685 15.105 18.5821 14.2027 17.6806 13.3004C16.7792 12.3337 16.7792 10.8513 17.745 9.94906C18.1958 9.49792 18.7753 9.30458 19.4192 9.30458C20.0631 9.30458 20.6426 9.56238 21.1577 10.0135C23.2826 12.2692 23.669 14.5894 23.669 16.0717Z" fill="#786ADE"/>
</svg>
