<svg width="31" height="31" viewBox="0 0 31 31" fill="none" xmlns="http://www.w3.org/2000/svg">
<path d="M15.6849 0.972656C7.50726 0.972656 0.875 7.61086 0.875 15.7958C0.875 23.9808 7.50726 30.619 15.6849 30.619C23.8625 30.619 30.4948 23.9808 30.4948 15.7958C30.5592 7.61086 23.8625 0.972656 15.6849 0.972656ZM24.1201 13.4757C22.4459 13.2179 21.1581 17.2782 19.4196 18.5671C17.681 19.8561 16.7152 18.5671 16.7152 18.5671C16.7152 18.5671 15.5561 20.1139 13.56 20.2428C11.4995 20.3717 12.4654 21.4673 10.5336 22.1763C8.6019 22.8852 8.85947 19.1472 8.85947 18.5671C8.85947 17.9871 8.47312 16.3114 8.47312 13.4757C8.47312 10.64 13.56 11.22 13.56 11.22C13.56 11.22 14.6546 11.3489 15.9425 11.9289C17.2947 12.509 17.2303 12.7023 20.3854 12.0578C23.5406 11.4133 25.7299 13.7335 24.1201 13.4757Z" fill="#6ADEA0"/>
</svg>
