<svg width="139" height="140" viewBox="0 0 139 140" fill="none" xmlns="http://www.w3.org/2000/svg">
<g opacity="0.85">
<path d="M69.6318 0C69.9154 0.283633 70.199 0.425449 70.4827 0.567265C76.8644 5.2472 83.2461 9.78532 89.6279 14.4653C91.1878 15.5998 92.7478 16.1671 94.5914 16.4507C102.391 17.5852 110.191 18.8616 117.849 19.9961C118.7 20.1379 118.984 20.4215 119.126 21.2724C120.402 29.7814 121.82 38.2904 123.096 46.7994C123.238 47.2248 123.522 47.7921 123.806 48.2175C128.769 55.0247 133.591 61.6901 138.554 68.4973C139.122 69.3482 139.122 69.7736 138.554 70.6245C133.875 76.8644 129.336 83.2461 124.656 89.6279C123.522 91.1879 122.813 92.7478 122.671 94.5914C121.537 102.391 120.26 110.191 119.126 117.849C118.984 118.7 118.558 119.126 117.707 119.267C111.042 120.26 104.235 121.395 97.5696 122.387C95.8678 122.671 94.3078 122.813 92.606 123.238C91.8969 123.38 91.3297 123.664 90.7624 124.089C83.9552 129.053 77.148 133.875 70.4827 138.98C69.7736 139.547 69.3481 139.547 68.6391 138.98C62.2573 134.3 55.8756 129.762 49.6357 125.082C48.0757 123.947 46.5157 123.238 44.6721 122.955C37.014 121.678 29.2141 120.544 21.4143 119.267C20.5634 119.126 20.1379 118.7 19.9961 117.849C18.8616 110.758 17.727 103.668 16.5925 96.4351C16.4507 95.3005 16.3089 94.0242 16.0252 92.8896C15.8834 92.1806 15.5998 91.4715 15.1743 90.9042C10.2108 84.097 5.38902 77.4317 0.425449 70.6245C-0.141816 69.9154 -0.141816 69.3481 0.425449 68.6391C5.10538 62.2573 9.64351 55.8756 14.3234 49.6357C15.458 48.0757 16.0252 46.5157 16.3089 44.6721C17.4434 36.8722 18.7197 29.0723 19.8543 21.4143C19.9961 20.5634 20.4215 20.2797 21.1306 20.1379C29.6396 18.8616 38.1486 17.4434 46.6575 16.1671C47.083 16.0252 47.6503 15.7416 48.0757 15.458C54.8829 10.4944 61.6901 5.53083 68.4972 0.567265C69.0645 0.425449 69.3481 0.283633 69.6318 0Z" fill="#485DDA"/>
<path d="M80.5815 35.7895C80.5815 36.2149 80.5815 36.6404 80.5815 36.924C80.5815 43.873 80.5815 50.9638 80.5815 57.9128C80.5815 58.7637 80.8651 58.9055 81.5742 58.9055C88.8068 58.9055 96.0395 58.9055 103.272 58.9055C103.556 58.9055 103.981 58.9055 104.407 58.9055C104.407 59.331 104.407 59.6146 104.407 59.8983C104.407 66.5636 104.407 73.0872 104.407 79.7525C104.407 80.6034 104.265 80.8871 103.414 80.7452C96.1813 80.7452 88.9487 80.7452 81.5742 80.7452C80.5815 80.7452 80.5815 80.7452 80.5815 81.8798C80.5815 88.687 80.5815 95.636 80.5815 102.443C80.5815 103.294 80.4397 103.436 79.5888 103.436C72.7816 103.436 65.8326 103.436 59.0254 103.436C58.1745 103.436 58.0327 103.152 58.0327 102.301C58.0327 95.3523 58.0327 88.5451 58.0327 81.5961C58.0327 80.8871 57.7491 80.6034 57.04 80.6034C49.9492 80.6034 42.8584 80.6034 35.6257 80.6034C34.7748 80.6034 34.4912 80.4616 34.4912 79.6107C34.4912 72.9454 34.4912 66.28 34.4912 59.6146C34.4912 59.331 34.4912 59.0474 34.4912 58.6219C34.9167 58.6219 35.3421 58.6219 35.6257 58.6219C42.7166 58.6219 49.8074 58.6219 56.8982 58.6219C57.7491 58.6219 57.8909 58.3383 57.8909 57.6292C57.8909 50.5384 57.8909 43.4476 57.8909 36.4986C57.8909 35.6477 58.1745 35.5059 58.8836 35.5059C65.6908 35.5059 72.6398 35.5059 79.447 35.5059C79.7306 35.7895 80.156 35.7895 80.5815 35.7895Z" fill="#EFEFEF"/>
</g>
</svg>
