<svg width="31" height="31" viewBox="0 0 31 31" fill="none" xmlns="http://www.w3.org/2000/svg">
<path d="M15.2982 0.554688C7.12054 0.554688 0.488281 7.19289 0.488281 15.3779C0.488281 23.5628 7.12054 30.201 15.2982 30.201C23.4758 30.201 30.1081 23.5628 30.1081 15.3779C30.1081 7.19289 23.4758 0.554688 15.2982 0.554688ZM23.6046 23.1117L18.067 21.2427C17.5519 21.0493 17.1655 20.5982 17.1655 20.0182V14.7334L15.427 12.0265L13.8816 14.4111V19.9537C13.8816 20.5337 13.4952 20.9849 12.9801 21.1782L7.44249 23.0472C6.60541 23.305 5.70394 22.6605 5.76833 21.7583C5.89711 18.3425 6.79858 11.0598 11.8855 7.90183C12.7225 7.38624 13.8172 8.03072 13.8172 8.99745V11.8976L14.7187 10.5442V4.87274C14.7187 4.48605 15.0406 4.22825 15.3626 4.22825C15.7489 4.22825 16.0065 4.5505 16.0065 4.87274V10.5442L17.0367 12.1554V8.933C17.0367 7.90182 18.1314 7.32179 18.9685 7.83738C24.1197 10.9954 25.0212 18.278 25.0856 21.6938C25.3432 22.725 24.4417 23.4339 23.6046 23.1117Z" fill="#38DAE0"/>
</svg>
